<svg width="36" height="36" viewBox="0 0 36 36" fill="none" xmlns="http://www.w3.org/2000/svg">
<path fill-rule="evenodd" clip-rule="evenodd" d="M35 18C35 27.3897 27.3897 35 18 35C8.61147 35 1 27.3897 1 18C1 8.61147 8.61147 1 18 1C27.3897 1 35 8.61147 35 18Z" stroke="#94A6AC" stroke-width="1.2"/>
<path d="M17.9928 7L8.16016 12.4411V23.2717L17.9928 29L27.8256 23.2717V12.4411L17.9928 7ZM25.8572 12.8265L22.6242 14.6474L14.731 10.2796L17.9928 8.47453L25.8572 12.8265ZM17.9928 17.2561L10.1285 12.8265L13.3987 11.0167L21.3037 15.3912L17.9928 17.2561ZM9.45023 13.9252L17.3477 18.3735V27.131L9.45023 22.5303V13.9252ZM18.638 27.131V18.3735L26.5353 13.9252V22.5303L18.638 27.131Z" fill="#94A6AC"/>
</svg>
