<svg width="14" height="15" viewBox="0 0 14 15" fill="none" xmlns="http://www.w3.org/2000/svg">
<mask id="mask0" mask-type="alpha" maskUnits="userSpaceOnUse" x="0" y="0" width="14" height="15">
<path fill-rule="evenodd" clip-rule="evenodd" d="M0 14.1667V0L13.9998 0V14.1667H0Z" fill="white"/>
</mask>
<g mask="url(#mask0)">
<path fill-rule="evenodd" clip-rule="evenodd" d="M7.93715 6.66667H6.26538V3.59333H7.93715C8.77468 3.59333 9.45573 4.28333 9.45573 5.13C9.45573 5.9775 8.77468 6.66667 7.93715 6.66667ZM7.93715 2.76083H5.44185V6.66667H4.01221V7.5H5.44185V8.86917H4.01221V9.7025H5.44185V10.9892H6.26538V9.7025H8.90232V8.86917H6.26538V7.5H7.93715C9.22844 7.5 10.2793 6.43667 10.2793 5.13C10.2793 3.82333 9.22844 2.76083 7.93715 2.76083ZM7.00002 13.3333C3.59472 13.3333 0.823547 10.53 0.823547 7.08333C0.823547 3.63667 3.59472 0.833334 7.00002 0.833334C10.4061 0.833334 13.1765 3.63667 13.1765 7.08333C13.1765 10.53 10.4061 13.3333 7.00002 13.3333ZM7 0C3.14012 0 0 3.1775 0 7.08333C0 10.9892 3.14012 14.1667 7 14.1667C10.8599 14.1667 14 10.9892 14 7.08333C14 3.1775 10.8599 0 7 0Z" fill="#BEBEBE"/>
</g>
</svg>
