<svg width="14" height="14" viewBox="0 0 14 14" fill="none" xmlns="http://www.w3.org/2000/svg">
<mask id="mask0" mask-type="alpha" maskUnits="userSpaceOnUse" x="0" y="0" width="14" height="14">
<path fill-rule="evenodd" clip-rule="evenodd" d="M0 0H14V14H0V0H0Z" fill="white"/>
</mask>
<g mask="url(#mask0)">
<path fill-rule="evenodd" clip-rule="evenodd" d="M10.0695 7.75799L7.48928 6.5752V2.79982C7.48928 2.53003 7.2709 2.31042 7.00061 2.31042C6.73114 2.31042 6.51276 2.53003 6.51276 2.79982V7.20197L9.66236 8.64549C9.72829 8.67593 9.79751 8.68991 9.86591 8.68991C10.0513 8.68991 10.2277 8.58463 10.3101 8.40532C10.4222 8.1602 10.315 7.87068 10.0695 7.75799ZM7.00044 13.0229C3.67943 13.0229 0.977295 10.3217 0.977295 7.00038C0.977295 3.67904 3.67943 0.977047 7.00044 0.977047C10.3223 0.977047 13.0236 3.67904 13.0236 7.00038C13.0236 10.3217 10.3223 13.0229 7.00044 13.0229ZM6.99967 -0.00012207C3.13972 -0.00012207 0 3.14027 0 7.00037C0 10.8596 3.13972 14 6.99967 14C10.8596 14 14.0002 10.8596 14.0002 7.00037C14.0002 3.14027 10.8596 -0.00012207 6.99967 -0.00012207Z" fill="#BEBEBE"/>
</g>
</svg>
