<svg width="19" height="17" viewBox="0 0 19 17" fill="none" xmlns="http://www.w3.org/2000/svg">
<path d="M5.73958 3.17102H0" stroke="#4A4A4A" stroke-width="2"/>
<path d="M19.0002 3.17102H11.6772" stroke="#4A4A4A" stroke-width="2"/>
<path d="M2.57292 8.5H0" stroke="#4A4A4A" stroke-width="2"/>
<path d="M18.9998 8.5H8.51025" stroke="#4A4A4A" stroke-width="2"/>
<path d="M8.90625 13.829H0" stroke="#4A4A4A" stroke-width="2"/>
<path d="M19 13.829H14.8438" stroke="#4A4A4A" stroke-width="2"/>
<path fill-rule="evenodd" clip-rule="evenodd" d="M10.2917 3.17111C10.2917 4.04269 9.58233 4.75006 8.70833 4.75006C7.83433 4.75006 7.125 4.04269 7.125 3.17111C7.125 2.29953 7.83433 1.59216 8.70833 1.59216C9.58233 1.59216 10.2917 2.29953 10.2917 3.17111Z" fill="white"/>
<path fill-rule="evenodd" clip-rule="evenodd" d="M10.2917 3.17111C10.2917 4.04269 9.58233 4.75006 8.70833 4.75006C7.83433 4.75006 7.125 4.04269 7.125 3.17111C7.125 2.29953 7.83433 1.59216 8.70833 1.59216C9.58233 1.59216 10.2917 2.29953 10.2917 3.17111Z" stroke="#4A4A4A" stroke-width="1.5"/>
<path fill-rule="evenodd" clip-rule="evenodd" d="M7.12516 8.49997C7.12516 9.37155 6.41583 10.0789 5.54183 10.0789C4.66783 10.0789 3.9585 9.37155 3.9585 8.49997C3.9585 7.62839 4.66783 6.92102 5.54183 6.92102C6.41583 6.92102 7.12516 7.62839 7.12516 8.49997Z" fill="white"/>
<path fill-rule="evenodd" clip-rule="evenodd" d="M7.12516 8.49997C7.12516 9.37155 6.41583 10.0789 5.54183 10.0789C4.66783 10.0789 3.9585 9.37155 3.9585 8.49997C3.9585 7.62839 4.66783 6.92102 5.54183 6.92102C6.41583 6.92102 7.12516 7.62839 7.12516 8.49997Z" stroke="#4A4A4A" stroke-width="1.5"/>
<path fill-rule="evenodd" clip-rule="evenodd" d="M13.4582 13.8289C13.4582 14.7005 12.7488 15.4079 11.8748 15.4079C11.0008 15.4079 10.2915 14.7005 10.2915 13.8289C10.2915 12.9574 11.0008 12.25 11.8748 12.25C12.7488 12.25 13.4582 12.9574 13.4582 13.8289Z" fill="white"/>
<path fill-rule="evenodd" clip-rule="evenodd" d="M13.4582 13.8289C13.4582 14.7005 12.7488 15.4079 11.8748 15.4079C11.0008 15.4079 10.2915 14.7005 10.2915 13.8289C10.2915 12.9574 11.0008 12.25 11.8748 12.25C12.7488 12.25 13.4582 12.9574 13.4582 13.8289Z" stroke="#4A4A4A" stroke-width="1.5"/>
</svg>
