<svg width="32" height="32" viewBox="0 0 32 32" fill="none" xmlns="http://www.w3.org/2000/svg">
<g clip-path="url(#clip0)">
<path d="M30.2609 5.99998H1.73919C0.78025 5.99998 6.29425e-05 6.78016 6.29425e-05 7.7391L0 23.6957C0 24.6546 0.780187 25.4348 1.73913 25.4348H30.2609C31.2198 25.4348 32 24.6546 32 23.6957L32.0001 7.7391C32.0001 6.78016 31.2199 5.99998 30.2609 5.99998ZM29.9131 23.3478H2.08694L2.087 8.08691H29.9131V23.3478Z" fill="black"/>
<path d="M4.86956 6.08704C4.29319 6.08704 3.82606 6.55416 3.82606 7.13054V8.17404C3.82606 8.95422 3.21494 9.56535 2.43475 9.56535H1.0435C0.467125 9.56529 0 10.0324 0 10.6088C0 11.1852 0.467125 11.6523 1.0435 11.6523H2.43481C4.35275 11.6523 5.91306 10.0919 5.91306 8.17404V7.13054C5.91306 6.55416 5.44594 6.08704 4.86956 6.08704Z" fill="black"/>
<path d="M30.9593 9.56523H29.9158C29.1356 9.56523 28.5245 8.9541 28.5245 8.17391V7.13041C28.5245 6.55404 28.0574 6.08691 27.481 6.08691C26.9046 6.08691 26.4375 6.55404 26.4375 7.13041V8.17391C26.4375 10.0919 27.9979 11.6522 29.9158 11.6522H30.9593C31.5356 11.6522 32.0028 11.185 32.0028 10.6087C32.0028 10.0323 31.5357 9.56523 30.9593 9.56523Z" fill="black"/>
<path d="M2.43481 19.6522H1.0435C0.467125 19.6522 0 20.1193 0 20.6957C0 21.272 0.467125 21.7392 1.0435 21.7392H2.43481C3.215 21.7392 3.82612 22.3503 3.82612 23.1305V24.174C3.82612 24.7503 4.29325 25.2175 4.86963 25.2175C5.446 25.2175 5.91313 24.7503 5.91313 24.174V23.1305C5.91306 21.2125 4.35269 19.6522 2.43481 19.6522Z" fill="black"/>
<path d="M30.9555 19.6522H29.5642C27.6463 19.6522 26.0859 21.2125 26.0859 23.1304V24.1739C26.0859 24.7503 26.5531 25.2174 27.1294 25.2174C27.7058 25.2174 28.1729 24.7503 28.1729 24.1739V23.1304C28.1729 22.3502 28.7841 21.7391 29.5643 21.7391H30.9556C31.5319 21.7391 31.9991 21.272 31.9991 20.6956C31.9991 20.1192 31.5319 19.6522 30.9555 19.6522Z" fill="black"/>
<path d="M15.9969 9.8783C12.8324 9.8783 10.2578 12.4525 10.2578 15.6174C10.2578 18.7819 12.8324 21.3566 15.9969 21.3566C19.1614 21.3566 21.7361 18.7819 21.7361 15.6174C21.7361 12.4529 19.1614 9.8783 15.9969 9.8783ZM15.9969 19.2696C13.983 19.2696 12.3448 17.6313 12.3448 15.6174C12.3448 13.6034 13.983 11.9649 15.9969 11.9649C18.0109 11.9649 19.6491 13.6035 19.6491 15.6174C19.6491 17.6313 18.0109 19.2696 15.9969 19.2696Z" fill="black"/>
</g>
<defs>
<clipPath id="clip0">
<rect width="32" height="32" fill="white"/>
</clipPath>
</defs>
</svg>
