<svg width="36" height="36" viewBox="0 0 36 36" fill="none" xmlns="http://www.w3.org/2000/svg">
<path fill-rule="evenodd" clip-rule="evenodd" d="M17.9997 1C8.62572 1 1 8.62551 1 17.9995C1 27.3734 8.62572 35 17.9997 35C27.3736 35 35.0004 27.3734 35.0004 17.9995C35.0004 8.62551 27.3736 1 17.9997 1Z" stroke="#94A6AC" stroke-width="1.2"/>
<path fill-rule="evenodd" clip-rule="evenodd" d="M17.993 7.5999C13.9089 7.5999 10.5984 10.9103 10.5984 14.9944C10.5984 15.954 11.0443 17.3014 11.7882 18.8466C12.5217 20.3701 13.5053 22.0073 14.4974 23.5201C15.4882 25.0308 16.48 26.4064 17.2248 27.4048C17.5277 27.8109 17.7893 28.1542 17.993 28.4182C18.1966 28.1542 18.4583 27.8109 18.7612 27.4048C19.5059 26.4064 20.4978 25.0308 21.4885 23.5201C22.4806 22.0073 23.4643 20.3701 24.1977 18.8466C24.9417 17.3014 25.3875 15.954 25.3875 14.9944C25.3875 10.9103 22.0771 7.5999 17.993 7.5999ZM17.993 29.3923C17.5246 29.7674 17.5246 29.7673 17.5245 29.7672L17.5182 29.7593L17.5004 29.737L17.4322 29.6508C17.3727 29.5755 17.2859 29.4648 17.1755 29.3227C16.9549 29.0385 16.6402 28.6282 16.2629 28.1223C15.5086 27.1111 14.5019 25.715 13.494 24.1782C12.4875 22.6435 11.4725 20.9572 10.707 19.3671C9.95191 17.7988 9.39844 16.2426 9.39844 14.9944C9.39844 10.2476 13.2461 6.3999 17.993 6.3999C22.7398 6.3999 26.5875 10.2476 26.5875 14.9944C26.5875 16.2426 26.034 17.7988 25.279 19.3671C24.5135 20.9572 23.4985 22.6435 22.492 24.1782C21.4841 25.715 20.4773 27.1111 19.7231 28.1223C19.3457 28.6282 19.0311 29.0385 18.8104 29.3227C18.7001 29.4648 18.6132 29.5755 18.5537 29.6508L18.4855 29.737L18.4677 29.7593L18.4618 29.7667C18.4617 29.7668 18.4613 29.7674 17.993 29.3923ZM17.993 29.3923L18.4618 29.7667L17.993 30.3521L17.5245 29.7672L17.993 29.3923Z" fill="#94A6AC"/>
<path fill-rule="evenodd" clip-rule="evenodd" d="M17.9916 12.2681C16.4871 12.2681 15.2664 13.4886 15.2664 14.9944C15.2664 16.5001 16.4868 17.7196 17.9916 17.7196C19.4976 17.7196 20.7179 16.4999 20.7179 14.9944C20.7179 13.4887 19.4974 12.2681 17.9916 12.2681ZM14.0664 14.9944C14.0664 12.8261 15.8241 11.0681 17.9916 11.0681C20.1601 11.0681 21.9179 12.8259 21.9179 14.9944C21.9179 17.1632 20.1598 18.9196 17.9916 18.9196C15.8244 18.9196 14.0664 17.1631 14.0664 14.9944Z" fill="#94A6AC"/>
</svg>
