<svg width="34" height="34" viewBox="0 0 34 34" fill="none" xmlns="http://www.w3.org/2000/svg">
<mask id="mask0" mask-type="alpha" maskUnits="userSpaceOnUse" x="0" y="0" width="34" height="34">
<path fill-rule="evenodd" clip-rule="evenodd" d="M34 0V34H0V0L34 0Z" fill="white"/>
</mask>
<g mask="url(#mask0)">
<path fill-rule="evenodd" clip-rule="evenodd" d="M6.49762 28.208C7.19844 22.9446 11.637 19.0212 16.9979 19.0212C22.349 19.0212 26.7985 22.9489 27.4993 28.207C24.7476 30.7871 21.0592 32.3813 16.9979 32.3813C12.9378 32.3813 9.24937 30.7881 6.49762 28.208ZM12.5481 12.9496C12.5481 10.495 14.5453 8.49658 16.9998 8.49658C19.4554 8.49658 21.4526 10.495 21.4526 12.9496C21.4526 15.4042 19.4554 17.4015 16.9998 17.4015C14.5453 17.4015 12.5481 15.4042 12.5481 12.9496ZM17.0002 1.61865C25.4825 1.61865 32.3822 8.51884 32.3822 16.9994C32.3822 20.7037 31.065 24.1049 28.877 26.7626C27.8559 22.4766 24.6314 19.1297 20.4934 17.9077C22.0508 16.8069 23.0718 14.9968 23.0718 12.9495C23.0718 9.60151 20.3486 6.87781 17.0002 6.87781C13.6529 6.87781 10.9297 9.60151 10.9297 12.9495C10.9297 14.9957 11.9497 16.8048 13.506 17.9056C9.36133 19.1265 6.14346 22.4724 5.12458 26.7626C2.93546 24.1049 1.61935 20.7037 1.61935 16.9994C1.61935 8.51884 8.51903 1.61865 17.0002 1.61865ZM16.9997 0C7.62572 0 0 7.62551 0 16.9995C0 26.3734 7.62572 34 16.9997 34C26.3736 34 34.0004 26.3734 34.0004 16.9995C34.0004 7.62551 26.3736 0 16.9997 0Z" fill="#96A9AE"/>
</g>
</svg>
